<svg width="64" height="51" viewBox="0 0 64 51" fill="none" xmlns="http://www.w3.org/2000/svg">
<path d="M55.476 21.5461C55.3436 21.4358 54.1519 20.531 51.5921 20.531C50.93 20.531 50.2459 20.5972 49.5839 20.7076C49.0984 17.3312 46.2958 15.6981 46.1854 15.6099L45.5013 15.2126L45.06 15.8526C44.5083 16.7133 44.089 17.6842 43.8462 18.6773C43.3828 20.5972 43.6697 22.4068 44.6407 23.9515C43.4711 24.6136 41.5732 24.768 41.176 24.7901H9.83958C9.02307 24.7901 8.36103 25.4521 8.36103 26.2687C8.3169 29.0051 8.78032 31.7415 9.72924 34.3234C10.8106 37.1481 12.4215 39.2446 14.4959 40.5245C16.8351 41.9589 20.6529 42.7755 24.9561 42.7755C26.8981 42.7755 28.84 42.5989 30.76 42.2458C33.4302 41.7603 35.9901 40.8335 38.3513 39.4873C40.2933 38.3619 42.0367 36.9275 43.5152 35.2503C46.0089 32.4477 47.4874 29.314 48.5688 26.5335H49.0101C51.7245 26.5335 53.4016 25.4521 54.3285 24.5253C54.9464 23.9515 55.4098 23.2454 55.7408 22.4509L55.9394 21.8771L55.476 21.5461Z" fill="white"/>
<path d="M12.7526 23.8852H16.9455C17.1441 23.8852 17.3206 23.7307 17.3206 23.51V19.7585C17.3206 19.5598 17.1661 19.3833 16.9455 19.3833H12.7526C12.554 19.3833 12.3774 19.5378 12.3774 19.7585V23.51C12.3995 23.7307 12.554 23.8852 12.7526 23.8852ZM18.5344 23.8852H22.7273C22.9259 23.8852 23.1024 23.7307 23.1024 23.51V19.7585C23.1024 19.5598 22.9479 19.3833 22.7273 19.3833H18.5344C18.3357 19.3833 18.1592 19.5378 18.1592 19.7585V23.51C18.1813 23.7307 18.3357 23.8852 18.5344 23.8852ZM24.4265 23.8852H28.6194C28.818 23.8852 28.9945 23.7307 28.9945 23.51V19.7585C28.9945 19.5598 28.8401 19.3833 28.6194 19.3833H24.4265C24.2279 19.3833 24.0513 19.5378 24.0513 19.7585V23.51C24.0513 23.7307 24.2058 23.8852 24.4265 23.8852ZM30.2303 23.8852H34.4232C34.6219 23.8852 34.7984 23.7307 34.7984 23.51V19.7585C34.7984 19.5598 34.6439 19.3833 34.4232 19.3833H30.2303C30.0317 19.3833 29.8552 19.5378 29.8552 19.7585V23.51C29.8552 23.7307 30.0317 23.8852 30.2303 23.8852ZM18.5344 18.5227H22.7273C22.9259 18.5227 23.1024 18.3461 23.1024 18.1475V14.396C23.1024 14.1973 22.9479 14.0208 22.7273 14.0208H18.5344C18.3357 14.0208 18.1592 14.1753 18.1592 14.396V18.1475C18.1813 18.3461 18.3357 18.5227 18.5344 18.5227ZM24.4265 18.5227H28.6194C28.818 18.5227 28.9945 18.3461 28.9945 18.1475V14.396C28.9945 14.1973 28.8401 14.0208 28.6194 14.0208H24.4265C24.2279 14.0208 24.0513 14.1753 24.0513 14.396V18.1475C24.0513 18.3461 24.2058 18.5227 24.4265 18.5227ZM30.2303 18.5227H34.4232C34.6219 18.5227 34.7984 18.3461 34.7984 18.1475V14.396C34.7984 14.1973 34.6219 14.0208 34.4232 14.0208H30.2303C30.0317 14.0208 29.8552 14.1753 29.8552 14.396V18.1475C29.8552 18.3461 30.0317 18.5227 30.2303 18.5227ZM30.2303 13.1381H34.4232C34.6219 13.1381 34.7984 12.9836 34.7984 12.7629V9.01139C34.7984 8.81278 34.6219 8.63623 34.4232 8.63623H30.2303C30.0317 8.63623 29.8552 8.79071 29.8552 9.01139V12.7629C29.8552 12.9615 30.0317 13.1381 30.2303 13.1381ZM36.0783 23.8852H40.2712C40.4698 23.8852 40.6464 23.7307 40.6464 23.51V19.7585C40.6464 19.5598 40.4919 19.3833 40.2712 19.3833H36.0783C35.8797 19.3833 35.7032 19.5378 35.7032 19.7585V23.51C35.7253 23.7307 35.8797 23.8852 36.0783 23.8852Z" fill="white"/>
</svg>
