<svg width="36" height="34" viewBox="0 0 36 34" fill="none" xmlns="http://www.w3.org/2000/svg">
<path d="M17.161 14.342C17.319 14.112 17.492 14.082 17.633 14.082C17.773 14.082 18.007 14.112 18.165 14.342C20.225 17.148 24.497 24.55 24.892 24.953C25.477 25.55 26.28 25.178 26.746 24.501C27.206 23.834 27.333 23.366 27.333 22.867C27.333 22.527 20.68 10.253 20.009 9.231C19.365 8.248 19.155 8 18.053 8H17.228C16.128 8 15.969 8.248 15.325 9.23C14.653 10.254 8 22.528 8 22.868C8 23.368 8.127 23.835 8.587 24.502C9.053 25.179 9.856 25.552 10.441 24.954C10.836 24.551 15.102 17.149 17.161 14.344V14.342Z" fill="white"/>
</svg>
