<svg width="272" height="181" viewBox="0 0 272 181" fill="none" xmlns="http://www.w3.org/2000/svg">
<path d="M255.942 31.3137L264 10.444L263.65 9.15109L183.933 30.1542C192.432 17.8593 189.513 8 189.513 8C189.513 8 164.056 24.257 144.804 23.8316C125.553 23.4062 119.347 18.268 89.8272 27.6852C60.3077 37.0941 51.9665 65.9797 43.4084 72.1856C34.8503 78.3915 8 98.6022 8 98.6022L8.05839 98.9609L32.2646 91.2536C32.2646 91.2536 25.625 97.5095 11.52 116.519C11.52 116.519 11.2781 116.294 10.861 115.91L10.8861 116.044C10.8861 116.044 22.2218 133.368 33.3489 130.165C34.4667 129.84 35.7262 129.306 37.1025 128.606C41.5817 131.1 47.4289 133.552 53.885 134.227C53.885 134.227 49.5142 129.148 45.8691 123.367C46.8533 122.733 47.8626 122.074 48.8886 121.407L48.4132 121.741L57.6302 125.127L56.6126 116.461C56.6459 116.444 56.6709 116.419 56.7043 116.402L65.7629 119.73L64.6368 111.848C65.7879 111.247 66.9306 110.68 68.0734 110.155L77.5156 74.4377L116.561 47.8042L113.458 55.6116C105.542 75.08 90.678 79.676 90.678 79.676L84.4722 82.0282C79.8595 87.4834 77.916 88.8263 76.3312 107.135C80.0513 106.201 83.6047 105.976 86.8244 106.843C103.507 111.339 109.287 131.442 104.791 137.005C103.665 138.398 100.988 140.775 97.6096 143.57H90.8365L90.7448 149.058C90.5112 149.242 90.2777 149.417 90.0525 149.6H83.1626L83.0792 154.955C82.4703 155.423 81.8614 155.873 81.2775 156.315C74.8047 156.448 66.6053 150.801 66.6053 150.801C66.6053 155.94 70.8844 163.847 70.8844 163.847C70.8844 163.847 71.168 163.714 71.6434 163.48C71.2264 163.789 70.9928 163.956 70.9928 163.956C70.9928 163.956 88.3175 175.508 99.2278 171.229C108.929 167.426 134.044 147.623 155.723 138.248L221.326 120.965L229.976 98.5521L179.979 111.723V91.5956L238.643 76.1393L247.293 53.7265L179.996 71.4599V51.3242L255.942 31.3137Z" fill="white"/>
</svg>
