<svg width="65" height="70" viewBox="0 0 65 70" fill="none" xmlns="http://www.w3.org/2000/svg">
<path d="M43.2192 21.5715C40.4912 22.501 39.1776 24.1682 38.2827 26.7649C38.0518 27.4583 37.4744 28.2256 36.8249 28.742L39.0622 31.1912L31.9603 26.1158L12.3582 12.1289C12.3582 12.1289 13.7727 21.5125 14.2635 24.965C14.6099 27.3993 15.2018 28.4911 17.0783 29.5977L17.8289 30.0108L21.0622 31.7519L19.1424 30.7338L28.0052 35.6764L27.9476 35.8092L18.4062 31.2945C18.9115 33.065 19.893 36.4731 20.3116 37.9781C20.7591 39.601 21.2643 40.1911 22.8088 40.7667L25.6525 41.829L27.4135 41.1207L25.1761 42.6404L13.9893 57.1435C21.4231 50.0912 27.7165 47.583 32.3212 45.5321C38.1961 42.9355 41.7326 41.2683 44.042 35.278C45.6876 31.0732 46.9722 25.688 48.6036 23.6076L52.0823 19.0633C52.0823 19.0633 44.8792 21.0109 43.2192 21.5715Z" fill="white"/>
</svg>
