<svg width="55" height="68" viewBox="0 0 55 68" fill="none" xmlns="http://www.w3.org/2000/svg">
<path d="M27.6791 33.7725C27.6791 32.0486 28.3639 30.3953 29.5829 29.1763C30.8019 27.9573 32.4552 27.2725 34.1791 27.2725C35.903 27.2725 37.5563 27.9573 38.7753 29.1763C39.9943 30.3953 40.6791 32.0486 40.6791 33.7725C40.6791 35.4964 39.9943 37.1497 38.7753 38.3687C37.5563 39.5876 35.903 40.2725 34.1791 40.2725C32.4552 40.2725 30.8019 39.5876 29.5829 38.3687C28.3639 37.1497 27.6791 35.4964 27.6791 33.7725V33.7725Z" stroke="white" stroke-width="2.39474"/>
<path d="M14.6791 46.7725C14.6791 45.0486 15.3639 43.3953 16.5829 42.1763C17.8019 40.9573 19.4552 40.2725 21.1791 40.2725H27.6791V46.7725C27.6791 48.4964 26.9943 50.1497 25.7753 51.3687C24.5563 52.5876 22.903 53.2725 21.1791 53.2725C19.4552 53.2725 17.8019 52.5876 16.5829 51.3687C15.3639 50.1497 14.6791 48.4964 14.6791 46.7725Z" stroke="white" stroke-width="2.39474"/>
<path d="M27.6791 14.2725V27.2725H34.1791C35.903 27.2725 37.5563 26.5876 38.7753 25.3687C39.9943 24.1497 40.6791 22.4964 40.6791 20.7725C40.6791 19.0486 39.9943 17.3953 38.7753 16.1763C37.5563 14.9573 35.903 14.2725 34.1791 14.2725H27.6791Z" stroke="white" stroke-width="2.39474"/>
<path d="M14.6791 20.7725C14.6791 22.4964 15.3639 24.1497 16.5829 25.3687C17.8019 26.5876 19.4552 27.2725 21.1791 27.2725H27.6791V14.2725H21.1791C19.4552 14.2725 17.8019 14.9573 16.5829 16.1763C15.3639 17.3953 14.6791 19.0486 14.6791 20.7725Z" stroke="white" stroke-width="2.39474"/>
<path d="M14.6791 33.7725C14.6791 35.4964 15.3639 37.1497 16.5829 38.3687C17.8019 39.5876 19.4552 40.2725 21.1791 40.2725H27.6791V27.2725H21.1791C19.4552 27.2725 17.8019 27.9573 16.5829 29.1763C15.3639 30.3953 14.6791 32.0486 14.6791 33.7725Z" stroke="white" stroke-width="2.39474"/>
</svg>
