<svg width="55" height="68" viewBox="0 0 55 68" fill="none" xmlns="http://www.w3.org/2000/svg">
<path d="M27.5896 34.0942C27.5896 32.3703 28.2744 30.717 29.4934 29.498C30.7124 28.2791 32.3657 27.5942 34.0896 27.5942C35.8135 27.5942 37.4668 28.2791 38.6858 29.498C39.9048 30.717 40.5896 32.3703 40.5896 34.0942C40.5896 35.8181 39.9048 37.4714 38.6858 38.6904C37.4668 39.9094 35.8135 40.5942 34.0896 40.5942C32.3657 40.5942 30.7124 39.9094 29.4934 38.6904C28.2744 37.4714 27.5896 35.8181 27.5896 34.0942V34.0942Z" stroke="white" stroke-width="2.39474"/>
<path d="M14.5896 47.0942C14.5896 45.3703 15.2744 43.717 16.4934 42.498C17.7124 41.2791 19.3657 40.5942 21.0896 40.5942H27.5896V47.0942C27.5896 48.8181 26.9048 50.4714 25.6858 51.6904C24.4668 52.9094 22.8135 53.5942 21.0896 53.5942C19.3657 53.5942 17.7124 52.9094 16.4934 51.6904C15.2744 50.4714 14.5896 48.8181 14.5896 47.0942Z" stroke="white" stroke-width="2.39474"/>
<path d="M27.5896 14.5942V27.5942H34.0896C35.8135 27.5942 37.4668 26.9094 38.6858 25.6904C39.9048 24.4714 40.5896 22.8181 40.5896 21.0942C40.5896 19.3703 39.9048 17.717 38.6858 16.498C37.4668 15.2791 35.8135 14.5942 34.0896 14.5942H27.5896Z" stroke="white" stroke-width="2.39474"/>
<path d="M14.5896 21.0942C14.5896 22.8181 15.2744 24.4714 16.4934 25.6904C17.7124 26.9094 19.3657 27.5942 21.0896 27.5942H27.5896V14.5942H21.0896C19.3657 14.5942 17.7124 15.2791 16.4934 16.498C15.2744 17.717 14.5896 19.3703 14.5896 21.0942Z" stroke="white" stroke-width="2.39474"/>
<path d="M14.5896 34.0942C14.5896 35.8181 15.2744 37.4714 16.4934 38.6904C17.7124 39.9094 19.3657 40.5942 21.0896 40.5942H27.5896V27.5942H21.0896C19.3657 27.5942 17.7124 28.2791 16.4934 29.498C15.2744 30.717 14.5896 32.3703 14.5896 34.0942Z" stroke="white" stroke-width="2.39474"/>
</svg>
