<svg width="64" height="76" viewBox="0 0 64 76" fill="none" xmlns="http://www.w3.org/2000/svg">
<g clip-path="url(#clip0_175_152)">
<path d="M25.2508 50.4893C25.2508 50.4893 23.4366 51.5926 26.512 51.9083C30.2141 52.3803 32.1862 52.3021 36.2836 51.5144C37.1072 52.0187 37.9781 52.4411 38.8841 52.7755C29.6655 56.7167 17.9984 52.5395 25.2494 50.4893H25.2508ZM24.0709 45.3667C24.0709 45.3667 22.1002 46.8638 25.1741 47.181C29.1935 47.5748 32.3455 47.6529 37.7852 46.5511C38.3142 47.0877 38.9619 47.4923 39.6761 47.7326C28.5636 51.0424 16.1119 48.0482 24.0709 45.3682V45.3667ZM45.8224 54.3493C45.8224 54.3493 47.1616 55.4526 44.3253 56.3199C39.0448 57.8981 22.1799 58.3701 17.4512 56.3199C15.7962 55.6119 18.9482 54.5868 19.9586 54.429C20.9837 54.193 21.5369 54.193 21.5369 54.193C19.7226 52.9319 9.47883 56.7934 16.3361 57.8952C35.1715 60.969 50.6971 56.5559 45.8106 54.3493H45.8224ZM26.1033 40.0067C26.1033 40.0067 17.5131 42.0569 23.0295 42.7649C25.3939 43.0805 30.043 43.0009 34.378 42.6867C37.9239 42.3711 41.4726 41.7427 41.4726 41.7427C41.4726 41.7427 40.2115 42.2944 39.3443 42.846C30.5976 45.1322 13.8094 44.1071 18.6179 41.7427C22.7154 39.7721 26.1049 40.0096 26.1049 40.0096L26.1033 40.0067ZM41.4726 48.5969C50.2989 44.0245 46.2014 39.6143 43.3636 40.1645C42.6556 40.3223 42.3385 40.4801 42.3385 40.4801C42.3385 40.4801 42.5745 40.0081 43.1261 39.8503C48.7222 37.8797 53.1353 45.7606 41.3118 48.8329C41.3118 48.8329 41.3901 48.7548 41.4697 48.5969H41.4726ZM26.9736 61.0487C35.4842 61.6003 48.4891 60.7331 48.8033 56.7123C48.8033 56.7123 48.1734 58.2905 41.7898 59.4705C34.5388 60.8097 25.5547 60.6505 20.2743 59.7861C20.2743 59.7861 21.3776 60.7301 26.9736 61.0472V61.0487Z" fill="white"/>
<path d="M36.1273 14C36.1273 14 41.0139 18.9648 31.4781 26.4518C23.8333 32.5198 29.745 35.9875 31.4781 39.9286C26.9853 35.9093 23.7551 32.362 25.9617 29.0536C29.1919 24.1655 38.0979 21.8159 36.1273 14ZM33.6198 36.6188C35.906 39.2192 32.99 41.5836 32.99 41.5836C32.99 41.5836 38.822 38.5894 36.142 34.8842C33.6994 31.3384 31.8056 29.6038 42.0523 23.6936C42.0523 23.6936 25.8968 27.7129 33.6198 36.6188Z" fill="white"/>
</g>
<defs>
<clipPath id="clip0_175_152">
<rect width="35.3995" height="47.1993" fill="white" transform="translate(14 14)"/>
</clipPath>
</defs>
</svg>
