<svg width="66" height="65" viewBox="0 0 66 65" fill="none" xmlns="http://www.w3.org/2000/svg">
<g clip-path="url(#clip0_175_159)">
<path d="M53.1543 45.6709C50.5032 45.6048 48.4485 45.8701 46.7252 46.599C46.2281 46.7977 45.4327 46.7979 45.3664 47.4275C45.6317 47.6927 45.6647 48.1235 45.8967 48.4879C46.2946 49.1505 46.9903 50.0455 47.62 50.5096C48.3158 51.0397 49.0119 51.5698 49.7408 52.0339C51.0333 52.8293 52.4915 53.2931 53.7507 54.0885C54.4801 54.5521 55.2087 55.149 55.9378 55.6461C56.3025 55.911 56.5343 56.3419 56.9983 56.5076V56.4083C56.7663 56.1099 56.7 55.6792 56.4682 55.3478C56.137 55.0164 55.8054 54.718 55.474 54.3867C54.5129 53.0944 53.32 51.9676 52.0275 51.0397C50.9672 50.3106 48.6473 49.3164 48.2165 48.0902C48.2165 48.0902 48.1832 48.0572 48.1502 48.0241C48.8793 47.9578 49.7408 47.6927 50.4368 47.4938C51.5637 47.1954 52.5909 47.2618 53.7507 46.9636C54.2809 46.831 54.8112 46.6653 55.3414 46.4996V46.2015C54.7451 45.6048 54.3142 44.8096 53.6844 44.2462C51.9944 42.7878 50.1385 41.363 48.2165 40.1701C47.189 39.5073 45.8635 39.0763 44.7699 38.5131C44.3724 38.314 43.7094 38.2148 43.4776 37.8834C42.881 37.1543 42.5496 36.1934 42.1188 35.3317C41.1581 33.5088 40.2298 31.4876 39.4014 29.5656C38.8051 28.2731 38.4405 26.9806 37.7113 25.7877C34.2981 20.154 30.5864 16.7407 24.8865 13.3935C23.6603 12.6977 22.2023 12.3994 20.6447 12.0349C19.8165 12.0017 18.9878 11.9356 18.1593 11.9023C17.6291 11.6703 17.0988 11.0408 16.6348 10.7424C14.7462 9.54929 9.8745 6.96469 8.48262 10.378C7.58782 12.532 9.80819 14.6528 10.5703 15.7465C11.134 16.5087 11.8628 17.3702 12.2606 18.232C12.4926 18.795 12.5587 19.3919 12.7907 19.9883C13.321 21.4461 13.8179 23.0702 14.514 24.429C14.8786 25.1249 15.2761 25.854 15.7402 26.4835C16.0052 26.8479 16.4691 27.0138 16.5686 27.6103C16.1048 28.2731 16.0716 29.2673 15.8063 30.0957C14.6133 33.8404 15.0774 38.4799 16.7674 41.2304C17.2975 42.0587 18.557 43.8817 20.247 43.1857C21.7383 42.5892 21.4069 40.7002 21.8376 39.0433C21.9372 38.6454 21.8709 38.3805 22.0696 38.1154C22.0698 38.1485 22.0696 38.1818 22.0696 38.1818C22.5337 39.1096 22.9975 40.0044 23.4283 40.9323C24.4557 42.5559 26.2451 44.2462 27.7363 45.373C28.532 45.9692 29.1615 46.9967 30.1557 47.3613V47.2617H30.0893C29.8904 46.9634 29.5923 46.831 29.3272 46.599C28.7307 46.0025 28.0677 45.2734 27.6039 44.6106C26.2122 42.7547 24.9858 40.7002 23.8923 38.5793C23.3622 37.552 22.8981 36.4252 22.4674 35.398C22.2684 35.0001 22.2684 34.4038 21.937 34.2051C21.4399 34.934 20.711 35.5637 20.3464 36.4585C19.7171 37.8834 19.6505 39.6398 19.4185 41.4624C19.2861 41.4957 19.3522 41.4624 19.2859 41.5287C18.2256 41.2634 17.8609 40.1701 17.4632 39.242C16.469 36.8893 16.3034 33.1113 17.1651 30.3941C17.3971 29.698 18.3913 27.5109 17.9936 26.8481C17.7948 26.2184 17.1318 25.854 16.7674 25.3569C16.3366 24.7272 15.8726 23.9319 15.5745 23.2359C14.779 21.3802 14.3813 19.3255 13.5198 17.4696C13.1221 16.6079 12.4263 15.7133 11.8628 14.9181C11.2333 14.0233 10.5373 13.3935 10.0402 12.3331C9.8747 11.9686 9.64248 11.3721 9.90755 10.9744C9.97387 10.7094 10.1063 10.61 10.3716 10.5437C10.8023 10.179 12.0285 10.643 12.4593 10.8418C13.6855 11.3387 14.7127 11.8029 15.7401 12.4987C16.204 12.8301 16.7011 13.4599 17.2975 13.6256H17.9936C19.0541 13.8574 20.247 13.6919 21.2412 13.99C22.9977 14.5532 24.5881 15.3819 26.0133 16.2767C30.3546 19.0272 33.9334 22.9378 36.3527 27.6103C36.7504 28.3723 36.9159 29.0685 37.2806 29.8637C37.9766 31.4876 38.8381 33.1446 39.534 34.7352C40.2298 36.2926 40.8926 37.8834 41.8868 39.1759C42.3841 39.8716 44.3722 40.2362 45.267 40.6009C45.9298 40.899 46.9572 41.1643 47.5537 41.5287C48.6803 42.2244 49.8071 43.02 50.8676 43.7822C51.3979 44.1797 53.0547 45.0083 53.1543 45.6709Z" fill="white"/>
<path d="M19.3518 16.873C18.7884 16.873 18.3909 16.9396 17.9932 17.039C17.9932 17.039 17.9932 17.0722 17.9932 17.1053H18.0595C18.3248 17.6354 18.7884 18.0001 19.1198 18.4639C19.385 18.994 19.6169 19.5244 19.8821 20.0547C19.9152 20.0215 19.9482 19.9884 19.9482 19.9884C20.4125 19.6568 20.6443 19.1267 20.6443 18.3315C20.4453 18.0994 20.4123 17.8674 20.2466 17.6354C20.0478 17.3038 19.6169 17.1383 19.3518 16.873Z" fill="white"/>
</g>
<defs>
<clipPath id="clip0_175_159">
<rect width="48.7619" height="48" fill="white" transform="translate(8.26868 8.67822)"/>
</clipPath>
</defs>
</svg>
