<svg width="81" height="80" viewBox="0 0 81 80" fill="none" xmlns="http://www.w3.org/2000/svg">
<path fill-rule="evenodd" clip-rule="evenodd" d="M45.691 8.0151C45.2299 8.0151 44.7991 8.1134 44.406 8.2419C45.2488 8.8088 45.7099 9.5459 45.9443 10.3887C45.9594 10.5021 45.9934 10.5852 46.0085 10.7024C46.0236 10.8196 46.0463 10.899 46.0463 11.0048C46.1143 12.4599 45.6683 12.6414 45.3508 13.4993C44.8709 14.6068 45.0031 15.7973 45.5776 16.7498C45.6302 16.8773 45.6961 16.9989 45.7742 17.1126C45.1467 12.9324 48.6353 12.3012 49.2778 10.9972C49.327 9.8558 48.3859 9.0961 47.6413 8.5669C46.9308 8.1361 46.2806 8 45.691 8V8.0151ZM50.9447 8.96C50.8766 9.338 50.9295 9.2397 50.9069 9.44L50.8691 9.8709L50.7557 10.2678L50.6234 10.6646L50.442 11.0426L50.3097 11.2391L50.2114 11.3903L49.962 11.7191C49.8637 11.8174 49.7805 11.9346 49.6596 12.0215C49.5387 12.1084 49.4631 12.218 49.3459 12.3012C48.9982 12.5658 48.6013 12.7623 48.2385 13.0117C48.1251 13.0949 48.0117 13.1629 47.9096 13.2612C47.7978 13.3404 47.6929 13.4289 47.596 13.5258C47.4825 13.6241 47.3994 13.7223 47.2936 13.8395C47.1878 13.9567 47.1122 14.0549 47.0441 14.1683L46.8173 14.516L46.6359 14.894L46.5036 15.272L46.3903 15.6877C46.3751 15.7558 46.3751 15.8389 46.3525 15.9031C46.3299 15.9673 46.3373 16.0354 46.3146 16.0997L46.2995 16.5154L46.3146 16.8178C46.3146 16.9501 46.3298 17.0824 46.3638 17.2336L46.447 17.6304L46.5792 18.0273L46.6926 18.2541L42.8903 16.78L40.9741 16.2887L39.9309 16.0392L36.9223 15.5932C36.8845 15.5932 36.8732 15.5781 36.8392 15.5781L33.8797 15.4269L31.7141 15.5101C30.7049 15.5781 29.6958 15.7066 28.6904 15.8729L27.9458 16.0052L26.4567 16.334L25.7121 16.5306L25.0015 16.8443L24.4572 17.0937C24.4195 17.1088 24.3892 17.1088 24.3741 17.1315L23.913 17.3583C23.8638 17.3734 23.8298 17.3961 23.7996 17.4074L23.2856 17.672C23.1722 17.7211 23.0588 17.7854 22.9567 17.8383C22.9076 17.8761 22.8433 17.9026 22.8056 17.9215L22.3746 18.1709C22.2377 18.2465 22.1053 18.3298 21.9778 18.4204L21.649 18.6471L21.2861 18.9117L21.0064 19.1385C20.9687 19.1536 20.9384 19.1876 20.9082 19.2065L20.6587 19.422C20.6436 19.4598 20.6096 19.4711 20.5907 19.49L20.2884 19.7697L19.9595 20.0834L19.6798 20.3858C19.642 20.4235 19.5967 20.4538 19.5664 20.484L19.2867 20.7826C19.2716 20.8204 19.2376 20.8317 19.2187 20.8658L18.8407 21.2626L17.9488 22.1206C17.6464 22.3852 17.3364 22.6346 17.0228 22.8463L16.0325 23.4737C15.7037 23.6551 15.3522 23.8214 14.9894 23.965L13.9159 24.3619C13.2205 24.5131 12.5099 24.7928 11.8976 24.8419C11.7653 24.8419 11.6179 24.8797 11.4819 24.8911L11.0661 24.9893L10.6692 25.1405C10.5339 25.1941 10.4015 25.2547 10.2724 25.3219C10.159 25.4051 10.0229 25.4731 9.9096 25.5487C9.7963 25.6243 9.6828 25.7301 9.5807 25.8284L9.2519 26.1308L8.9722 26.4596L8.7228 26.8375C8.63626 26.9587 8.55916 27.0863 8.4922 27.2193L8.3108 27.6502L8.1596 28.081L8.0765 28.4779C8.0273 28.6744 8.0273 28.8747 8.0084 28.9692C7.9895 29.0637 8.0084 29.1885 8.0084 29.3056C8.00521 29.3778 8.01028 29.4501 8.0235 29.5211C8.0386 29.6344 8.0613 29.7365 8.0916 29.8348L8.2049 30.1371C8.2541 30.2505 8.3184 30.3526 8.3863 30.4508L8.6018 30.7532L8.8815 31.0178C8.9784 31.1147 9.0833 31.2032 9.1952 31.2823C9.592 31.6301 9.6866 31.7435 10.2043 32.008C10.2875 32.0572 10.3707 32.0912 10.4689 32.1403C10.5181 32.1895 10.5181 32.2046 10.537 32.2386C10.5521 32.3709 10.5861 32.5032 10.6201 32.6355C10.6517 32.7716 10.6959 32.9045 10.7524 33.0323L10.8846 33.3347C10.8998 33.3725 10.9225 33.4027 10.9338 33.4178L11.1303 33.7807L11.3798 34.1284L11.6595 34.4421C11.7578 34.5404 11.856 34.6235 11.9732 34.7218L12.302 34.9712C12.4154 35.0544 12.5288 35.1224 12.6649 35.1867C12.7872 35.2571 12.9148 35.3178 13.0466 35.3681C13.1449 35.4172 13.262 35.4513 13.3755 35.4815L13.6551 35.5646C13.606 36.4566 13.5871 37.3033 13.7232 37.5981C13.8743 37.9269 14.6 36.9177 15.3257 35.765C15.2275 36.9064 15.1594 38.2444 15.3257 38.6374C15.492 39.0304 16.4974 37.7606 17.3591 36.3395C29.0759 33.6295 39.7722 41.7292 40.8947 53.1662C40.6793 51.3823 38.4833 50.3882 37.4742 50.6339C36.9828 51.8585 36.1362 53.4308 34.7794 54.4022C34.8927 53.3061 34.8436 52.1873 34.613 51.095C34.2433 52.6166 33.544 54.0384 32.5645 55.2601C30.9959 55.3735 29.4274 54.6176 28.5959 53.4762C28.5279 53.427 28.5128 53.325 28.4636 53.2607L28.3313 52.913C28.2822 52.7996 28.2482 52.6862 28.2331 52.5653C28.218 52.4444 28.2179 52.3385 28.2179 52.2024V51.953C28.2331 51.8396 28.2671 51.7262 28.3011 51.6053L28.4145 51.2576C28.4825 51.1442 28.5279 51.0308 28.611 50.9098C28.8907 50.1539 28.8907 49.4736 28.3842 49.0956C28.286 49.0276 28.1877 48.9822 28.0705 48.9293C28.0025 48.9142 27.9193 48.8802 27.8551 48.8613L27.7228 48.8121L27.3751 48.729C27.2621 48.6963 27.145 48.6798 27.0273 48.6798C26.9073 48.6603 26.7861 48.6489 26.6645 48.6458C26.5814 48.6458 26.4982 48.661 26.4151 48.661C26.2924 48.6599 26.1702 48.6765 26.0522 48.7101L25.7045 48.7744L25.3568 48.8877L25.028 49.0389L24.7142 49.2052C20.859 51.7187 23.1646 57.5959 25.7877 59.3043C24.7974 59.4857 23.7844 59.7012 23.5086 59.9166C24.1889 60.3777 24.9297 60.7481 25.7083 61.0581L28.3842 61.814C29.7562 62.1163 31.1433 62.2108 32.5493 62.1277C39.907 61.5889 45.9007 56.0071 46.9609 48.7063L47.0592 49.1372L47.2104 50.0632L47.2785 50.5092L47.3163 51.0005L47.3541 51.5448V51.8094C47.3541 51.8925 47.3692 51.9908 47.3692 52.0739C47.3692 52.157 47.3541 52.2705 47.3541 52.3763V52.6031C47.3541 52.7165 47.3389 52.8185 47.3389 52.9319C47.3389 52.9962 47.3389 53.0642 47.3238 53.1474L47.3087 53.5102C47.2936 53.5593 47.2936 53.6085 47.2936 53.6614L47.2444 54.0393C47.2444 54.0885 47.2444 54.1376 47.2293 54.1905L47.1651 54.6705V54.7083L47.0668 55.1694L46.9685 55.6608L46.8362 56.1748L46.704 56.6888L46.5376 57.218L46.1748 58.178L45.9783 58.658L45.7515 59.1191C45.7364 59.1683 45.7137 59.2023 45.7024 59.2325C44.595 61.4473 43.0075 63.3523 41.0232 64.8339C40.8909 64.917 40.7586 65.0153 40.6264 65.1136C40.5886 65.1514 40.5432 65.1627 40.513 65.1967L40.1501 65.4462L40.1993 65.5444H40.2144L40.9098 65.4462H40.925L42.21 65.2194C42.3234 65.2043 42.4595 65.1703 42.5729 65.1362L42.7997 65.0871L43.1474 65.0229L43.4497 64.9397C45.1014 64.5428 46.7002 63.9948 48.2423 63.3523C45.6154 66.9429 42.0929 69.8305 37.9769 71.7316C39.878 71.5994 41.7791 71.2857 43.6085 70.7565C50.2681 68.7911 55.8733 64.3123 59.2296 58.2763C58.549 62.1032 57.0312 65.7325 54.7847 68.9045C56.3873 67.8462 57.8576 66.6254 59.1993 65.2383C62.8987 61.3756 65.3269 56.473 66.1576 51.1895C66.7245 53.7974 66.8833 56.4961 66.6376 59.1569C78.5698 42.5115 67.6279 25.2539 63.0469 20.7108C63.0319 20.673 63.0092 20.6617 63.0092 20.6277C62.9714 20.8242 62.96 21.0245 62.9449 21.221C62.8958 21.599 62.8466 21.9656 62.7786 22.3285C62.7106 22.6914 62.5972 23.0542 62.4989 23.4246C62.4006 23.795 62.2495 24.1351 62.1021 24.4829C61.9547 24.8307 61.7884 25.1632 61.6107 25.492C61.4286 25.8153 61.2305 26.1294 61.0173 26.4331C60.8019 26.7468 60.5713 27.0454 60.337 27.3251C60.0903 27.6128 59.8305 27.889 59.5584 28.1528C59.4022 28.2957 59.2421 28.4343 59.0784 28.5686L58.7004 28.8974C58.4052 29.1316 58.096 29.3474 57.7744 29.5437C57.4588 29.7473 57.1333 29.9353 56.7993 30.1069C56.4515 30.2732 56.1039 30.4206 55.7561 30.568C55.4041 30.7012 55.0459 30.8172 54.6827 30.9157C54.3198 31.014 53.9381 31.0972 53.5753 31.1652C53.2125 31.2332 52.8194 31.2635 52.4528 31.2975C52.1882 31.3126 51.9236 31.3353 51.6968 31.3353C51.3188 31.3353 50.9409 31.2975 50.5743 31.2672C50.2077 31.2369 49.8184 31.1841 49.448 31.1009C49.0729 31.0331 48.7029 30.9396 48.3405 30.8212H48.3254C48.6883 30.7834 49.0511 30.7532 49.4215 30.689C49.7919 30.6248 50.1661 30.5378 50.5289 30.4395C50.8917 30.3412 51.2546 30.2241 51.6023 30.0918C51.95 29.9595 52.3129 29.7894 52.6455 29.6307C52.9842 29.4655 53.3148 29.2839 53.6357 29.0864C53.9495 28.871 54.2632 28.6555 54.5617 28.425C54.8579 28.1946 55.1394 27.9459 55.4046 27.6804C55.6843 27.4309 55.9337 27.1512 56.1832 26.8716C56.4327 26.592 56.6632 26.2781 56.8786 25.9796C56.9164 25.9304 56.9467 25.8662 56.9769 25.8133L57.4569 25.0573C57.6384 24.7285 57.8046 24.3959 57.9483 24.0482C58.092 23.7005 58.2279 23.3527 58.3451 22.9899C58.4623 22.6271 58.5417 22.2793 58.6248 21.9165C58.7079 21.5537 58.7571 21.1719 58.7911 20.8091C58.8251 20.4463 58.8554 20.0532 58.8554 19.6865C58.8554 19.422 58.8403 19.1574 58.8176 18.9306C58.78 18.5607 58.7359 18.1915 58.6853 17.8232C58.6195 17.4504 58.5363 17.0808 58.4359 16.7158C58.3225 16.368 58.2091 16.0052 58.073 15.6575C57.9369 15.3098 57.7706 14.962 57.6119 14.637C57.4532 14.312 57.2491 13.9756 57.045 13.6618C56.8409 13.348 56.614 13.0496 56.3835 12.7547L55.6276 11.9119C55.488 11.7705 55.3443 11.6331 55.1968 11.4999C54.4562 10.9243 53.6894 10.3833 52.8988 9.8785C52.7853 9.8142 52.6833 9.7651 52.5699 9.7122C52.0256 9.3644 51.5116 9.183 51.0014 9.0167L50.9447 8.96Z" fill="white"/>
</svg>
