<svg width="70" height="72" viewBox="0 0 70 72" fill="none" xmlns="http://www.w3.org/2000/svg">
<g filter="url(#filter0_d_175_158)">
<path d="M46.8999 47.2878C47.2242 44.5875 47.1267 44.1935 49.1365 44.6293L49.6479 44.6751C51.1941 44.7447 53.2158 44.4264 54.4237 43.8752C56.9807 42.6892 58.497 40.7073 55.9758 41.2286C50.225 42.4146 49.8071 40.4665 49.8071 40.4665C55.8823 31.4523 58.4234 20.0104 56.2285 17.2106C50.2509 9.56937 39.9014 13.183 39.7283 13.2785L39.6726 13.2885C38.5383 13.0497 37.2847 12.9104 35.8321 12.8905C33.2293 12.8507 31.2553 13.573 29.755 14.7093C29.755 14.7093 11.2947 7.10389 12.1523 24.2747C12.3354 27.9281 17.3858 51.9342 23.4151 44.6711C25.6219 42.0166 27.7511 39.774 27.7511 39.774C28.8058 40.4764 30.0733 40.8346 31.4006 40.7053L31.5041 40.6177C31.4734 40.9617 31.4875 41.3081 31.5459 41.6485C29.9937 43.3837 30.4514 43.6881 27.3472 44.3269C24.2071 44.9736 26.0537 46.1257 27.2556 46.4282C28.7162 46.7943 32.0951 47.3117 34.3795 44.1159L34.2879 44.4801C34.8968 44.9676 34.8551 47.9823 34.9446 50.1354C35.0341 52.2884 35.1754 54.3002 35.6152 55.4842C36.055 56.6682 36.5703 59.7227 40.6496 58.867C44.0583 58.1367 46.6651 57.0841 46.9039 47.3057" fill="black"/>
<path d="M46.8999 47.2878C47.2242 44.5875 47.1267 44.1935 49.1365 44.6293L49.6479 44.6751C51.1941 44.7447 53.2158 44.4264 54.4237 43.8752C56.9807 42.6892 58.497 40.7073 55.9758 41.2286C50.225 42.4146 49.8071 40.4665 49.8071 40.4665C55.8823 31.4523 58.4234 20.0104 56.2285 17.2106C50.2509 9.56937 39.9014 13.183 39.7283 13.2785L39.6726 13.2885C38.5383 13.0497 37.2847 12.9104 35.8321 12.8905C33.2293 12.8507 31.2553 13.573 29.755 14.7093C29.755 14.7093 11.2947 7.10389 12.1523 24.2747C12.3354 27.9281 17.3858 51.9342 23.4151 44.6711C25.6219 42.0166 27.7511 39.774 27.7511 39.774C28.8058 40.4764 30.0733 40.8346 31.4006 40.7053L31.5041 40.6177C31.4734 40.9617 31.4875 41.3081 31.5459 41.6485C29.9937 43.3837 30.4514 43.6881 27.3472 44.3269C24.2071 44.9736 26.0537 46.1257 27.2556 46.4282C28.7162 46.7943 32.0951 47.3117 34.3795 44.1159L34.2879 44.4801C34.8968 44.9676 34.8551 47.9823 34.9446 50.1354C35.0341 52.2884 35.1754 54.3002 35.6152 55.4842C36.055 56.6682 36.5703 59.7227 40.6496 58.867C44.0583 58.1367 46.6651 57.0841 46.9039 47.3057" stroke="black" stroke-width="4.27628"/>
<path d="M55.9578 41.2464C50.2071 42.4324 49.7892 40.4843 49.7892 40.4843C55.8643 31.47 58.4053 20.0281 56.2126 17.2284C50.2348 9.58717 39.8855 13.2028 39.7123 13.2963L39.6566 13.3063C38.3925 13.0526 37.1073 12.9187 35.8181 12.9063C33.2153 12.8665 31.2414 13.5888 29.741 14.7251C29.741 14.7251 11.2787 7.1197 12.1384 24.2905C12.3214 27.9439 17.3718 51.95 23.4011 44.6869C25.6218 42.0165 27.7511 39.7739 27.7511 39.7739C28.8056 40.4763 30.0733 40.8345 31.4006 40.7051L31.504 40.6176C31.4736 40.9615 31.4876 41.308 31.5458 41.6484C29.9937 43.3835 30.4513 43.688 27.3471 44.3268C24.2071 44.9735 26.0536 46.1256 27.2556 46.4281C28.7162 46.7942 32.095 47.3116 34.3794 44.1158L34.2879 44.48C34.8967 44.9675 35.3226 47.6499 35.251 50.0815C35.1794 52.5132 35.1316 54.1807 35.6092 55.4861C36.0868 56.7915 36.5643 59.7246 40.6436 58.8689C44.0523 58.1386 45.8173 56.2422 46.066 53.0863C46.2412 50.8417 46.6351 51.172 46.663 49.1662L46.9814 48.215C47.3456 45.1705 47.041 44.1895 49.1404 44.6471L49.6519 44.6929C51.1979 44.7625 53.2217 44.4442 54.4077 43.893C56.9647 42.707 58.481 40.725 55.9598 41.2464H55.9578Z" fill="#252525"/>
<path d="M34.6242 42.9716C34.465 48.6348 34.664 54.3379 35.2173 55.7069C35.7706 57.076 36.9584 59.7862 41.0396 58.9146C44.4483 58.1843 45.69 56.7695 46.2273 53.6474L47.4869 43.6641M29.7331 14.5818C29.7331 14.5818 11.2589 7.02811 12.1186 24.1989C12.3016 27.8524 17.352 51.8585 23.3813 44.5953C25.5821 41.9428 27.572 39.8674 27.572 39.8674M39.7104 13.2028C39.0737 13.4017 49.9863 9.21302 56.1907 17.1388C58.3796 19.9386 55.8425 31.3804 49.7673 40.3947" stroke="white" stroke-width="1.42476" stroke-linecap="round" stroke-linejoin="round"/>
<path d="M49.7693 40.3907C49.7693 40.3907 50.1673 42.3408 55.9379 41.1508C58.4591 40.6295 56.9409 42.6114 54.3858 43.7974C52.2885 44.7724 47.5844 45.0212 47.5068 43.678C47.3078 40.2056 49.9822 41.2602 49.7892 40.3907C49.6141 39.6066 48.4161 38.8385 47.6281 36.9203C46.9377 35.2488 38.1562 22.414 50.0638 24.3183C50.5015 24.2287 46.9595 12.9759 35.8161 12.8127C24.6727 12.6495 25.0249 26.5131 25.0249 26.5131" stroke="white" stroke-width="1.42476" stroke-linecap="round" stroke-linejoin="bevel"/>
<path fill-rule="evenodd" clip-rule="evenodd" d="M31.506 41.5807C29.9539 43.3159 30.4116 43.6203 27.3075 44.2591C24.1673 44.9058 26.0139 46.058 27.2158 46.3604C28.6764 46.7266 32.0553 47.2439 34.3397 44.0462C35.0361 43.0711 34.3357 41.519 33.3805 41.125C32.9189 40.934 32.302 40.6952 31.51 41.5827L31.506 41.5807Z" stroke="white" stroke-width="1.42476" stroke-linecap="round" stroke-linejoin="round"/>
<path d="M31.4046 41.5508C31.2454 40.53 31.7389 39.3181 32.2661 37.8974C33.0582 35.7682 34.8849 33.639 33.4243 26.8793C32.3358 21.8449 25.027 25.8306 25.027 26.5132C25.027 27.1957 25.3572 29.9756 24.9076 33.2092C24.3166 37.4317 27.5939 41.0016 31.3668 40.6374" stroke="white" stroke-width="1.42476" stroke-linecap="round" stroke-linejoin="round"/>
<path d="M29.6654 26.4116C29.6316 26.6444 30.0932 27.2672 30.6922 27.3508C31.2911 27.4344 31.8025 26.9488 31.8364 26.714C31.8702 26.4792 31.4085 26.2245 30.8096 26.1409C30.2106 26.0574 29.6952 26.1807 29.6654 26.4116Z" fill="white" stroke="white" stroke-width="0.475585" stroke-linecap="round"/>
<path d="M47.9008 25.936C47.9326 26.1688 47.4729 26.7916 46.874 26.8752C46.275 26.9588 45.7596 26.4733 45.7298 26.2384C45.6999 26.0036 46.1576 25.7489 46.7566 25.6654C47.3555 25.5818 47.8709 25.7052 47.9008 25.936Z" fill="white" stroke="white" stroke-width="0.236798" stroke-linecap="round"/>
<path d="M50.0419 24.3223C50.1414 26.153 49.6479 27.3967 49.5842 29.3448C49.4927 32.1744 50.9334 35.4139 48.7624 38.6575" stroke="white" stroke-width="1.42476" stroke-linecap="round" stroke-linejoin="round"/>
</g>
<defs>
<filter id="filter0_d_175_158" x="-3.91052" y="0.272461" width="77.1792" height="78.8115" filterUnits="userSpaceOnUse" color-interpolation-filters="sRGB">
<feFlood flood-opacity="0" result="BackgroundImageFix"/>
<feColorMatrix in="SourceAlpha" type="matrix" values="0 0 0 0 0 0 0 0 0 0 0 0 0 0 0 0 0 0 127 0" result="hardAlpha"/>
<feOffset dy="4"/>
<feGaussianBlur stdDeviation="2"/>
<feComposite in2="hardAlpha" operator="out"/>
<feColorMatrix type="matrix" values="0 0 0 0 0 0 0 0 0 0 0 0 0 0 0 0 0 0 0.25 0"/>
<feBlend mode="normal" in2="BackgroundImageFix" result="effect1_dropShadow_175_158"/>
<feBlend mode="normal" in="SourceGraphic" in2="effect1_dropShadow_175_158" result="shape"/>
</filter>
</defs>
</svg>
