<svg width="62" height="70" viewBox="0 0 62 70" fill="none" xmlns="http://www.w3.org/2000/svg">
<path fill-rule="evenodd" clip-rule="evenodd" d="M12.3355 40.953C11.8817 41.6932 11.8888 42.6271 12.3536 43.3601L20.7664 56.6312C21.3124 57.4925 22.3649 57.8853 23.3417 57.5922L47.6191 50.3089C48.9441 49.9115 49.6107 48.4336 49.0316 47.1774L33.4249 13.3227C32.6638 11.6717 30.3692 11.5362 29.419 13.0861L12.3355 40.953ZM33.0099 21.0638C32.6782 20.2962 31.555 20.4145 31.3903 21.2342L25.3817 51.1517C25.255 51.7825 25.8456 52.3212 26.4622 52.1372L43.236 47.1301C43.7256 46.9839 43.9778 46.4432 43.7751 45.9741L33.0099 21.0638Z" fill="white"/>
</svg>
