<svg width="63" height="62" viewBox="0 0 63 62" fill="none" xmlns="http://www.w3.org/2000/svg">
<path fill-rule="evenodd" clip-rule="evenodd" d="M50.2554 32.7335L53.6225 36.1069C53.8887 36.3744 54.0396 36.7383 54.0396 37.1161V39.0139C54.0396 44.0987 53.5109 45.9433 52.5183 47.8031C51.5489 49.6395 50.0498 51.1422 48.2156 52.1159C46.3596 53.1085 44.5189 53.6384 39.4441 53.6384H30.5332C30.4182 53.6378 30.3147 53.5681 30.271 53.4617C30.2272 53.3553 30.2516 53.233 30.3329 53.1516V53.1529L33.6988 49.7795C33.965 49.512 34.3276 49.3611 34.7053 49.3611H38.8242C42.6299 49.3611 44.0092 48.9643 45.4012 48.2176C46.777 47.4876 47.9015 46.3608 48.6289 44.9836C49.3606 43.6124 49.7565 42.2521 49.7695 38.5801L49.7698 32.9351C49.7704 32.8203 49.8397 32.7171 49.9457 32.6731C50.0517 32.6291 50.1737 32.6529 50.2554 32.7335ZM8.98554 29.8798L12.3539 33.2533C12.6201 33.5208 12.771 33.8846 12.771 34.2624V38.3901C12.771 42.2047 13.1665 43.5878 13.912 44.9824C14.6389 46.3594 15.763 47.4861 17.1383 48.2163C18.5303 48.963 19.9109 49.3598 23.7166 49.3598H29.1603C29.2758 49.3594 29.3802 49.4287 29.4246 49.5354C29.469 49.642 29.4447 49.7649 29.3631 49.8466L25.9947 53.2201C25.7285 53.4876 25.3659 53.6384 24.9894 53.6384H23.0954C18.0207 53.6384 16.1812 53.1085 14.3252 52.1146C12.4906 51.1411 10.991 49.6385 10.0213 47.8018C9.04243 45.9679 8.51477 44.1487 8.50031 39.2226L8.5 30.0814C8.50061 29.9667 8.5699 29.8635 8.67587 29.8195C8.78184 29.7755 8.90385 29.7993 8.98554 29.8798ZM43.1408 25.6012L46.5079 28.9785C46.7742 29.246 46.9238 29.6085 46.9238 29.9876V40.8064C46.9238 43.9568 44.3756 46.5112 41.2316 46.5112H37.6275C37.5137 46.5107 37.4111 46.4425 37.3665 46.3379C37.3218 46.2332 37.3436 46.112 37.4221 46.0295V46.0282L41.8085 41.4276C42.1127 41.1234 42.3333 40.7684 42.4715 40.3881C42.5926 40.0659 42.6545 39.7244 42.654 39.3802V25.8028C42.6541 25.6875 42.7236 25.5836 42.8302 25.5395C42.9367 25.4954 43.0593 25.5198 43.1408 25.6012ZM16.0975 36.9855H16.0963L20.688 41.382C20.991 41.6862 21.3472 41.9068 21.725 42.045C22.0369 42.1642 22.3766 42.2288 22.7316 42.2288H36.2786C36.3937 42.2294 36.4971 42.2991 36.5409 42.4055C36.5846 42.5119 36.5602 42.6342 36.4789 42.7156L33.1093 46.0903C32.843 46.3566 32.4805 46.5074 32.1039 46.5074H21.3079C19.7966 46.5058 18.3478 45.9038 17.2804 44.8339C16.2129 43.7641 15.6141 42.314 15.6158 40.8026V37.1909C15.6163 37.0771 15.6845 36.9745 15.7892 36.9298C15.8939 36.8852 16.015 36.907 16.0975 36.9855ZM24.9121 15.131C25.0259 15.1316 25.1285 15.1997 25.1731 15.3044C25.2177 15.4091 25.196 15.5303 25.1175 15.6127L20.7298 20.2146C20.4256 20.5189 20.2063 20.8738 20.0681 21.2542C19.9465 21.5763 19.8842 21.9177 19.8843 22.262V35.8395C19.8831 35.954 19.8137 36.0567 19.7078 36.1004C19.6019 36.144 19.4802 36.1202 19.3987 36.0398L16.0316 32.6625C15.7651 32.3948 15.6156 32.0324 15.6158 31.6547V20.8358C15.6158 17.6855 18.1639 15.131 21.3079 15.131H24.9121ZM48.2156 9.52382C50.0498 10.4975 51.5489 12.0002 52.5183 13.8366C53.4971 15.6706 54.0248 17.4897 54.0393 22.4158L54.0396 31.557C54.0396 31.6723 53.97 31.7762 53.8634 31.8203C53.7569 31.8644 53.6343 31.8401 53.5527 31.7586V31.7573L50.1869 28.3852C49.9196 28.1174 49.7696 27.7544 49.7698 27.3761V23.2483C49.7698 19.4337 49.373 18.0506 48.6289 16.6561C47.9015 15.2789 46.777 14.1521 45.4012 13.4221C44.0105 12.6754 42.6299 12.2786 38.8242 12.2786H33.3793C33.2642 12.278 33.1608 12.2083 33.117 12.1019C33.0732 11.9955 33.0977 11.8732 33.179 11.7918L36.5448 8.41835C36.811 8.15086 37.1736 8 37.5514 8H39.4441C44.5189 8 46.3596 8.52991 48.2156 9.52382ZM32.0063 8C32.1214 8.00061 32.2248 8.07029 32.2686 8.1767C32.3124 8.28311 32.2879 8.4054 32.2066 8.48681L28.8408 11.8603C28.5733 12.1277 28.212 12.2786 27.8342 12.2786H23.7153C19.9096 12.2786 18.529 12.6754 17.1371 13.4221C15.7613 14.1521 14.6367 15.2789 13.9094 16.6561C13.1653 18.0506 12.7685 19.4337 12.7685 23.2483V28.7046C12.7679 28.8194 12.6986 28.9226 12.5926 28.9666C12.4866 29.0106 12.3646 28.9868 12.2829 28.9062L8.91835 25.5328C8.65062 25.2652 8.5 24.9022 8.5 24.5237V22.6259C8.5 17.541 9.02865 15.6964 10.0213 13.8366C10.9907 12.0002 12.4898 10.4975 14.324 9.52382C16.1542 8.54372 17.9696 8.01481 22.8846 8.00031L32.0063 8ZM41.2316 15.131C44.3756 15.131 46.9238 17.6855 46.9238 20.8358V24.4476C46.9232 24.5614 46.8551 24.664 46.7504 24.7086C46.6457 24.7532 46.5245 24.7314 46.442 24.653L41.8528 20.2565C41.5486 19.9522 41.1936 19.7316 40.8146 19.5934C40.493 19.4716 40.1519 19.4093 39.808 19.4096H26.261C26.1457 19.4095 26.0418 19.34 25.9977 19.2335C25.9536 19.127 25.9779 19.0044 26.0594 18.9228L29.4303 15.5481C29.6965 15.2819 30.0578 15.131 30.4356 15.131H41.2316Z" fill="white"/>
</svg>
