<svg width="70" height="70" viewBox="0 0 70 70" fill="none" xmlns="http://www.w3.org/2000/svg">
<path d="M53.2995 14.6696C52.6927 16.1632 51.8526 17.6102 50.8724 18.9171C42.1908 9.90879 27.8616 9.67542 18.9 18.357C9.93838 27.0385 9.65833 41.3678 18.3399 50.3294C18.6199 50.6561 18.9467 50.9361 19.2734 51.2162L20.1135 51.963C29.6352 59.9911 43.9178 58.7776 51.9459 49.2558C55.0265 45.6152 56.8935 41.041 57.2202 36.2802C57.8736 30.6325 56.1467 23.3512 53.2995 14.6696ZM22.5406 51.4496C21.8872 52.2897 20.6736 52.3831 19.8335 51.7296C18.9933 51.0762 18.9 49.8626 19.5534 49.0225C20.2069 48.1823 21.4204 48.089 22.2606 48.7424C23.0541 49.3959 23.1941 50.6094 22.5406 51.4496ZM53.1595 44.6817C47.6051 52.103 35.6563 49.5826 28.0483 49.956C28.0483 49.956 26.6947 50.0493 25.3411 50.236C25.3411 50.236 25.8546 50.0026 26.508 49.7693C31.8756 47.9023 34.3961 47.5289 37.6633 45.8486C43.7778 42.7213 49.8922 35.8601 51.1058 28.7655C48.772 35.5801 41.6774 41.4611 35.2362 43.8415C30.8021 45.4752 22.8207 47.0621 22.8207 47.0621L22.494 46.8754C17.0797 44.2149 16.893 32.4528 26.7881 28.6722C31.1288 26.9919 35.2362 27.9254 39.9504 26.8052C44.9447 25.6383 50.7324 21.9043 53.0661 17.0034C55.6799 24.8915 58.8538 37.1203 53.1595 44.6817Z" fill="#474746"/>
<path d="M51.9459 49.2557C55.0264 45.615 56.8934 41.0409 57.2201 36.28Z" fill="#474746"/>
<path d="M53.1594 44.682C47.605 52.1033 35.6562 49.5828 28.0482 49.9562C28.0482 49.9562 26.6946 50.0496 25.3411 50.2363C25.3411 50.2363 25.8545 50.0029 26.5079 49.7695C31.8756 47.9025 34.396 47.5291 37.6633 45.8488C43.7777 42.7216 49.8921 35.8604 51.1057 28.7658C48.7719 35.5803 41.6773 41.4614 35.2362 43.8418C30.802 45.4754 22.8206 47.0624 22.8206 47.0624L22.4939 46.8757C17.0796 44.2152 16.8929 32.4531 26.788 28.6724C31.1288 26.9921 35.2362 27.9256 39.9503 26.8054C44.9446 25.6385 50.7323 21.9045 53.066 17.0037C55.6798 24.8917 58.8537 37.1206 53.1594 44.682Z" fill="white"/>
<path d="M22.5406 51.4497C21.8872 52.2899 20.6736 52.3832 19.8334 51.7297C18.9933 51.0763 18.8999 49.8628 19.5534 49.0226C20.2069 48.1824 21.4204 48.0891 22.2606 48.7425C23.054 49.396 23.1941 50.6095 22.5406 51.4497Z" fill="white"/>
</svg>
