<svg width="63" height="26" viewBox="0 0 63 26" fill="none" xmlns="http://www.w3.org/2000/svg">
<path d="M6.20306 10.7518C6.20306 10.1039 6.73467 9.85467 7.61516 9.85467C8.87774 9.85467 10.4726 10.2368 11.7352 10.9179V7.01387C10.3563 6.46564 8.99403 6.24967 7.61516 6.24967C4.24274 6.24967 2 8.01064 2 10.9511C2 15.5363 8.3129 14.8053 8.3129 16.7822C8.3129 17.5464 7.64838 17.7956 6.71806 17.7956C5.33919 17.7956 3.57822 17.2308 2.18274 16.4666V20.4205C3.72774 21.085 5.28935 21.3674 6.71806 21.3674C10.1735 21.3674 12.5492 19.6563 12.5492 16.6826C12.5326 11.7319 6.20306 12.6124 6.20306 10.7518ZM17.4334 2.9271L13.3798 3.79097L13.3632 17.0979C13.3632 19.5566 15.2072 21.3674 17.666 21.3674C19.0282 21.3674 20.025 21.1182 20.5732 20.8192V17.4468C20.0416 17.6627 17.4168 18.4269 17.4168 15.9682V10.0706H20.5732V6.53209H17.4168L17.4334 2.9271ZM25.7398 7.76145L25.474 6.53209H21.8856V21.0684H26.0389V11.2169C27.019 9.93774 28.6803 10.1703 29.1953 10.3531V6.53209C28.6637 6.33274 26.72 5.96726 25.7398 7.76145ZM30.2087 6.53209H34.3785V21.0684H30.2087V6.53209ZM30.2087 5.26951L34.3785 4.37242V1L30.2087 1.88048V5.26951ZM43.0505 6.24967C41.4224 6.24967 40.3758 7.01387 39.7943 7.54548L39.5784 6.51548H35.9235V25.8861L40.0767 25.0056L40.0934 20.3042C40.6914 20.7361 41.5719 21.3508 43.0338 21.3508C46.0075 21.3508 48.7155 18.9585 48.7155 13.6923C48.6988 8.87451 45.9577 6.24967 43.0505 6.24967ZM42.0537 17.696C41.0735 17.696 40.4921 17.3471 40.0934 16.9152L40.0767 10.7518C40.5087 10.27 41.1067 9.93774 42.0537 9.93774C43.5655 9.93774 44.6121 11.6323 44.6121 13.8085C44.6121 16.0347 43.5821 17.696 42.0537 17.696ZM61.8064 13.8584C61.8064 9.60548 59.7464 6.24967 55.8092 6.24967C51.8553 6.24967 49.463 9.60548 49.463 13.8252C49.463 18.8256 52.2872 21.3508 56.3408 21.3508C58.3177 21.3508 59.8129 20.9022 60.9425 20.271V16.9484C59.8129 17.5132 58.5171 17.8621 56.8724 17.8621C55.2609 17.8621 53.8322 17.2972 53.6495 15.3369H61.7732C61.7732 15.121 61.8064 14.2571 61.8064 13.8584ZM53.5996 12.2802C53.5996 10.4029 54.7459 9.62209 55.7925 9.62209C56.8059 9.62209 57.8858 10.4029 57.8858 12.2802H53.5996Z" fill="white"/>
</svg>
