<svg width="70" height="49" viewBox="0 0 70 49" fill="none" xmlns="http://www.w3.org/2000/svg">
<mask id="mask0_47_34" style="mask-type:luminance" maskUnits="userSpaceOnUse" x="8" y="8" width="54" height="33">
<path d="M8 8H62V40.4H8V8Z" fill="white"/>
</mask>
<g mask="url(#mask0_47_34)">
<path fill-rule="evenodd" clip-rule="evenodd" d="M35 8C27.8 8 23.3 11.6 21.5 18.8C24.2 15.2 27.35 13.85 30.95 14.75C33.004 15.263 34.472 16.754 36.097 18.403C38.744 21.09 41.808 24.2 48.5 24.2C55.7 24.2 60.2 20.6 62 13.4C59.3 17 56.15 18.35 52.55 17.45C50.496 16.937 49.028 15.446 47.403 13.797C44.756 11.11 41.692 8 35 8ZM21.5 24.2C14.3 24.2 9.8 27.8 8 35C10.7 31.4 13.85 30.05 17.45 30.95C19.504 31.464 20.972 32.954 22.597 34.603C25.244 37.29 28.308 40.4 35 40.4C42.2 40.4 46.7 36.8 48.5 29.6C45.8 33.2 42.65 34.55 39.05 33.65C36.996 33.137 35.528 31.646 33.903 29.997C31.256 27.31 28.192 24.2 21.5 24.2Z" fill="white"/>
</g>
</svg>
