<svg width="51" height="51" viewBox="0 0 51 51" fill="none" xmlns="http://www.w3.org/2000/svg">
<g clip-path="url(#clip0_47_73)">
<path d="M50.0885 25.398C50.0885 11.762 39.0343 0.707764 25.3982 0.707764C11.7622 0.707764 0.707962 11.762 0.707962 25.398C0.707962 39.0341 11.7622 50.0883 25.3982 50.0883C39.0343 50.0883 50.0885 39.0341 50.0885 25.398Z" fill="black"/>
<path fill-rule="evenodd" clip-rule="evenodd" d="M27.8022 31.7082V36.5364C28.5771 36.9387 29.4933 37.2406 30.551 37.4418C31.6088 37.643 32.7237 37.7435 33.8957 37.7435C35.0378 37.7435 36.1231 37.6328 37.151 37.4115C38.1789 37.1903 39.0803 36.8257 39.8549 36.3176C40.6296 35.8097 41.243 35.1458 41.695 34.326C42.1469 33.5062 42.3728 32.4929 42.3728 31.2858C42.3728 30.4107 42.2437 29.6437 41.9854 28.9848C41.7272 28.3261 41.3547 27.7401 40.868 27.2272C40.3814 26.7141 39.7978 26.254 39.1175 25.8466C38.4372 25.4392 37.6699 25.0544 36.8157 24.6924C36.19 24.4308 35.6289 24.1768 35.1322 23.9304C34.6357 23.6839 34.2136 23.4326 33.8658 23.176C33.5182 22.9195 33.2501 22.6479 33.0615 22.3612C32.8726 22.0746 32.7783 21.7502 32.7783 21.3881C32.7783 21.0561 32.8628 20.757 33.0316 20.4904C33.2005 20.2238 33.4388 19.9949 33.7466 19.8038C34.0547 19.6127 34.432 19.4643 34.8789 19.3587C35.3258 19.2531 35.8225 19.2003 36.3688 19.2003C36.7662 19.2003 37.1857 19.2305 37.6276 19.2908C38.0697 19.3512 38.5142 19.4442 38.9611 19.5699C39.408 19.6957 39.8426 19.8541 40.2647 20.0452C40.6867 20.2363 41.0765 20.4576 41.4342 20.7091V16.1978C40.7091 15.9161 39.9171 15.7074 39.0579 15.5716C38.1988 15.4358 37.2131 15.3679 36.1007 15.3679C34.9684 15.3679 33.8957 15.4911 32.8826 15.7376C31.8696 15.984 30.9782 16.3688 30.2084 16.8918C29.4385 17.4149 28.8304 18.0812 28.3834 18.891C27.9365 19.7007 27.7129 20.6688 27.7129 21.7955C27.7129 23.2339 28.1226 24.4609 28.942 25.4768C29.7614 26.4928 31.0054 27.3529 32.6741 28.057C33.3296 28.3286 33.9405 28.5952 34.5066 28.8567C35.0726 29.1181 35.5617 29.3897 35.9739 29.6713C36.3862 29.9531 36.7114 30.2598 36.9498 30.5918C37.1882 30.9238 37.3074 31.3009 37.3074 31.7233C37.3074 32.0352 37.233 32.3243 37.0838 32.5909C36.9349 32.8575 36.7091 33.0888 36.406 33.285C36.1032 33.4811 35.7257 33.6345 35.2737 33.7452C34.8218 33.8557 34.2929 33.9111 33.6872 33.9111C32.6543 33.9111 31.6312 33.7274 30.6181 33.3604C29.605 32.9933 28.6664 32.4426 27.8022 31.7082ZM19.5556 19.7159H25.784V15.7537H8.42366V19.7159H14.6216V37.3577H19.5556V19.7159Z" fill="white"/>
</g>
<defs>
<clipPath id="clip0_47_73">
<rect width="49.3805" height="49.3805" fill="white" transform="translate(0.707962 0.707764)"/>
</clipPath>
</defs>
</svg>
