<svg width="24" height="25" viewBox="0 0 24 25" fill="none" xmlns="http://www.w3.org/2000/svg">
<path d="M21 10.7295C21 10.9284 20.921 11.1192 20.7803 11.2598C20.6397 11.4005 20.4489 11.4795 20.25 11.4795C20.0511 11.4795 19.8603 11.4005 19.7197 11.2598C19.579 11.1192 19.5 10.9284 19.5 10.7295V6.54074L13.2816 12.7601C13.1408 12.9008 12.95 12.9799 12.7509 12.9799C12.5519 12.9799 12.361 12.9008 12.2203 12.7601C12.0796 12.6194 12.0005 12.4285 12.0005 12.2295C12.0005 12.0305 12.0796 11.8396 12.2203 11.6989L18.4387 5.47949H14.25C14.0511 5.47949 13.8603 5.40047 13.7197 5.25982C13.579 5.11917 13.5 4.9284 13.5 4.72949C13.5 4.53058 13.579 4.33981 13.7197 4.19916C13.8603 4.05851 14.0511 3.97949 14.25 3.97949H20.25C20.4489 3.97949 20.6397 4.05851 20.7803 4.19916C20.921 4.33981 21 4.53058 21 4.72949V10.7295ZM17.25 12.9795C17.0511 12.9795 16.8603 13.0585 16.7197 13.1992C16.579 13.3398 16.5 13.5306 16.5 13.7295V20.4795H4.5V8.47949H11.25C11.4489 8.47949 11.6397 8.40047 11.7803 8.25982C11.921 8.11917 12 7.9284 12 7.72949C12 7.53058 11.921 7.33981 11.7803 7.19916C11.6397 7.05851 11.4489 6.97949 11.25 6.97949H4.5C4.10218 6.97949 3.72064 7.13753 3.43934 7.41883C3.15804 7.70014 3 8.08167 3 8.47949V20.4795C3 20.8773 3.15804 21.2588 3.43934 21.5402C3.72064 21.8215 4.10218 21.9795 4.5 21.9795H16.5C16.8978 21.9795 17.2794 21.8215 17.5607 21.5402C17.842 21.2588 18 20.8773 18 20.4795V13.7295C18 13.5306 17.921 13.3398 17.7803 13.1992C17.6397 13.0585 17.4489 12.9795 17.25 12.9795Z" fill="#888888"/>
</svg>
