<svg width="799" height="781" viewBox="0 0 799 781" fill="none" xmlns="http://www.w3.org/2000/svg">
<path d="M398.453 1.9375C178.422 1.9375 0 180.328 0 400.391C0 576.441 114.169 725.797 272.487 778.484C292.4 782.172 299.712 769.841 299.712 759.316C299.712 749.816 299.341 718.425 299.172 685.131C188.319 709.234 164.928 638.119 164.928 638.119C146.803 592.063 120.687 579.819 120.687 579.819C84.5375 555.087 123.413 555.594 123.413 555.594C163.425 558.406 184.494 596.656 184.494 596.656C220.031 657.572 277.706 639.959 300.444 629.781C304.019 604.025 314.347 586.45 325.741 576.5C237.241 566.422 144.203 532.256 144.203 379.581C144.203 336.081 159.769 300.534 185.259 272.631C181.122 262.594 167.484 222.069 189.119 167.184C189.119 167.184 222.578 156.475 298.722 208.028C330.503 199.197 364.591 194.772 398.453 194.622C432.316 194.772 466.428 199.197 498.272 208.028C574.325 156.475 607.737 167.184 607.737 167.184C629.425 222.069 615.781 262.594 611.644 272.631C637.191 300.534 652.65 336.078 652.65 379.581C652.65 532.619 559.438 566.319 470.713 576.181C485.003 588.547 497.738 612.797 497.738 649.969C497.738 703.281 497.275 746.191 497.275 759.316C497.275 769.919 504.447 782.344 524.647 778.431C682.878 725.684 796.903 576.381 796.903 400.391C796.903 180.328 618.506 1.9375 398.453 1.9375Z" fill="white" stroke="white" stroke-width="3.125"/>
</svg>
