<svg width="61" height="60" viewBox="0 0 61 60" fill="none" xmlns="http://www.w3.org/2000/svg">
<path d="M30.5 5.625C25.6791 5.625 20.9664 7.05457 16.958 9.73293C12.9495 12.4113 9.82532 16.2181 7.98043 20.6721C6.13555 25.126 5.65284 30.027 6.59335 34.7553C7.53387 39.4836 9.85536 43.8268 13.2643 47.2357C16.6732 50.6446 21.0164 52.9661 25.7447 53.9066C30.473 54.8472 35.374 54.3644 39.8279 52.5196C44.2819 50.6747 48.0887 47.5505 50.7671 43.542C53.4454 39.5336 54.875 34.8209 54.875 30C54.8682 23.5374 52.2979 17.3415 47.7282 12.7718C43.1585 8.20209 36.9626 5.63182 30.5 5.625ZM24.3195 39.375H36.6805C35.4219 43.6734 33.3125 47.5477 30.5 50.5992C27.6875 47.5477 25.5781 43.6734 24.3195 39.375ZM23.4687 35.625C22.8469 31.9008 22.8469 28.0992 23.4687 24.375H37.5312C38.1531 28.0992 38.1531 31.9008 37.5312 35.625H23.4687ZM9.875 30C9.87336 28.0979 10.136 26.2048 10.6555 24.375H19.6695C19.1102 28.1041 19.1102 31.8959 19.6695 35.625H10.6555C10.136 33.7952 9.87336 31.9021 9.875 30ZM36.6805 20.625H24.3195C25.5781 16.3266 27.6875 12.4523 30.5 9.40078C33.3125 12.4523 35.4219 16.3266 36.6805 20.625ZM41.3305 24.375H50.3445C51.3852 28.0528 51.3852 31.9472 50.3445 35.625H41.3305C41.8898 31.8959 41.8898 28.1041 41.3305 24.375ZM48.868 20.625H40.5641C39.6072 16.8598 38.0002 13.2906 35.8156 10.0781C38.6067 10.8282 41.2099 12.154 43.4578 13.9705C45.7057 15.7869 47.5486 18.0537 48.868 20.625ZM25.1844 10.0781C22.9997 13.2906 21.3928 16.8598 20.4359 20.625H12.132C13.4514 18.0537 15.2943 15.7869 17.5422 13.9705C19.7901 12.154 22.3933 10.8282 25.1844 10.0781ZM12.132 39.375H20.4359C21.3928 43.1402 22.9997 46.7094 25.1844 49.9219C22.3933 49.1718 19.7901 47.846 17.5422 46.0295C15.2943 44.2131 13.4514 41.9464 12.132 39.375ZM35.8156 49.9219C38.0002 46.7094 39.6072 43.1402 40.5641 39.375H48.868C47.5486 41.9464 45.7057 44.2131 43.4578 46.0295C41.2099 47.846 38.6067 49.1718 35.8156 49.9219Z" fill="url(#paint0_linear_9_87)"/>
<defs>
<linearGradient id="paint0_linear_9_87" x1="30.5" y1="5.625" x2="30.5" y2="54.375" gradientUnits="userSpaceOnUse">
<stop stop-color="#22D3EE"/>
<stop offset="1" stop-color="#3AD39C"/>
</linearGradient>
</defs>
</svg>
